<?xml version="1.0" encoding="utf-8"?>
<!-- Generator: Adobe Illustrator 21.0.0, SVG Export Plug-In . SVG Version: 6.00 Build 0)  -->
<svg version="1.1" id="bc1f3139-0466-4655-9cee-0348334ffa8f"
	 xmlns="http://www.w3.org/2000/svg" xmlns:xlink="http://www.w3.org/1999/xlink" x="0px" y="0px" viewBox="0 0 977.5 801.9"
	 style="enable-background:new 0 0 977.5 801.9;" xml:space="preserve">
<style type="text/css">
	.st0{fill:#F2F2F2;}
	.st1{fill:none;stroke:#3F3D56;stroke-miterlimit:10;}
	.st2{fill:#D03023;}
	.st3{fill:#FFFFFF;}
	.st4{fill:url(#SVGID_1_);}
	.st5{fill:#575A89;}
	.st6{fill:#CBCEDA;}
	.st7{opacity:0.1;enable-background:new    ;}
	.st8{fill:#FBBEBE;}
	.st9{fill:#3F3D56;}
	.st10{opacity:5.000000e-02;enable-background:new    ;}
	.st11{opacity:0.1;}
</style>
<title>download</title>
<path class="st0" d="M625.4,79.1v610c0,15.1-12.3,27.4-27.4,27.4H350.3c-15.1,0-27.4-12.3-27.4-27.4v-610
	c0-15.1,12.3-27.4,27.4-27.4l0,0h37.1v4.8c0,12.5,10.1,22.6,22.6,22.6h126c12.5,0,22.6-10.1,22.6-22.6l0,0v-4.8H598
	C613.1,51.7,625.4,64,625.4,79.1L625.4,79.1z"/>
<path class="st1" d="M662.7,174.5h2.5c1.3,0,2.3,1,2.3,2.3l0,0v80.4c0,1.3-1,2.3-2.3,2.3l0,0h-2.5"/>
<path class="st1" d="M317.6,135.9h-1.8c-0.8,0-1.5-0.7-1.5-1.5v-25c0-0.8,0.7-1.5,1.5-1.5h1.8"/>
<path class="st1" d="M317.3,207.9h-1.5c-0.9,0-1.7-0.8-1.7-1.7v-45.3c0-0.9,0.8-1.7,1.7-1.7h1.8"/>
<path class="st1" d="M317.3,274.1h-1.5c-0.9,0-1.6-0.7-1.6-1.6v-45.9c0-0.9,0.7-1.6,1.6-1.6h1.5"/>
<path class="st1" d="M353.3,15.4H627c19.7,0,35.7,16,35.7,35.7v630c0,19.7-16,35.7-35.7,35.7H353.3c-19.7,0-35.7-16-35.7-35.7v-630
	C317.6,31.4,333.6,15.4,353.3,15.4z"/>
<path class="st0" d="M457.4,39.4h43.1c1.4,0,2.5,1.1,2.5,2.5v4.7c0,1.4-1.1,2.5-2.5,2.5h-43.1c-1.4,0-2.5-1.1-2.5-2.5v-4.7
	C454.9,40.5,456,39.4,457.4,39.4z"/>
<circle class="st0" cx="515.9" cy="44.3" r="5.6"/>
<path class="st1" d="M459.4,36.4h43.1c1.4,0,2.5,1.1,2.5,2.5v4.7c0,1.4-1.1,2.5-2.5,2.5h-43.1c-1.4,0-2.5-1.1-2.5-2.5v-4.7
	C456.9,37.5,458,36.4,459.4,36.4z"/>
<circle class="st1" cx="517.9" cy="41.3" r="5.6"/>
<path class="st1" d="M641.4,61.1v610c0,15.1-12.3,27.4-27.4,27.4H366.3c-15.1,0-27.4-12.3-27.4-27.4v-610
	c0-15.1,12.3-27.4,27.4-27.4l0,0h37.1v4.8c0,12.5,10.1,22.6,22.6,22.6h126c12.5,0,22.6-10.1,22.6-22.6l0,0v-4.8H614
	C629.1,33.7,641.4,46,641.4,61.1L641.4,61.1z"/>
<rect x="347.6" y="92" class="st1" width="31" height="4"/>
<rect x="347.6" y="99" class="st1" width="31" height="4"/>
<rect x="347.6" y="106" class="st1" width="31" height="4"/>
<path class="st1" d="M627.2,102h-0.9l-0.3-0.3c1.1-1.4,1.8-3.1,1.8-4.9c0-4.1-3.4-7.4-7.5-7.4s-7.4,3.4-7.4,7.5s3.4,7.4,7.5,7.4
	c1.8,0,3.5-0.6,4.9-1.8l0.3,0.3v0.9l5.7,5.8l1.7-1.7L627.2,102z M620.4,102c-2.9,0-5.2-2.3-5.2-5.2s2.3-5.2,5.2-5.2s5.2,2.3,5.2,5.2
	l0,0C625.5,99.7,623.2,102,620.4,102L620.4,102z"/>
<path class="st0" d="M735.2,129c1.1-20.7,18.2-36.9,38.9-36.9c1.2,0,2.4,0.1,3.5,0.2c14.4-24.7,46-33.1,70.7-18.7
	c7.8,4.5,14.2,10.9,18.7,18.7c1-0.1,2-0.1,3-0.1c20.7,0,37.8,16.2,38.9,36.9"/>
<path class="st1" d="M743.3,126c1.1-20.7,18.2-36.9,38.9-36.9c1.2,0,2.4,0.1,3.5,0.2c14.4-24.7,46-33.1,70.7-18.7
	c7.8,4.5,14.2,10.9,18.7,18.7c1-0.1,2-0.1,3-0.1c20.7,0,37.8,16.2,38.9,36.9"/>
<path class="st0" d="M695.2,252.6c1.1-20.7,18.2-36.9,38.9-36.9c1.2,0,2.4,0.1,3.5,0.2c14.4-24.7,46-33.1,70.7-18.7
	c7.8,4.5,14.2,10.9,18.7,18.7c1-0.1,2-0.1,3-0.1c20.7,0,37.8,16.2,38.9,36.9"/>
<path class="st1" d="M703.3,249.6c1.1-20.7,18.2-36.9,38.9-36.9c1.2,0,2.4,0.1,3.5,0.2c14.4-24.7,46-33.1,70.7-18.7
	c7.8,4.5,14.2,10.9,18.7,18.7c1-0.1,2-0.1,3-0.1c20.7,0,37.8,16.2,38.9,36.9"/>
<path class="st0" d="M40.2,66c1.1-20.7,18.2-36.9,38.9-36.9c1.2,0,2.4,0.1,3.5,0.2c14.4-24.7,46-33.1,70.7-18.7
	c7.8,4.5,14.2,10.9,18.7,18.7c1-0.1,2-0.1,3-0.1c20.7,0,37.8,16.2,38.9,36.9"/>
<path class="st1" d="M48.3,63c1.1-20.7,18.2-36.9,38.9-36.9c1.2,0,2.4,0.1,3.5,0.2c14.4-24.7,46-33.1,70.7-18.7
	c7.8,4.5,14.2,10.9,18.7,18.7c1-0.1,2-0.1,3-0.1c20.7,0,37.8,16.2,38.9,36.9"/>
<path class="st2" d="M361.6,194h212.9c6.9,0,12.5,5.6,12.5,12.5v106.9c0,6.9-5.6,12.5-12.5,12.5H361.6c-6.9,0-12.5-5.6-12.5-12.5
	V206.5C349.1,199.6,354.7,194,361.6,194z"/>
<path class="st1" d="M374.6,169h212.9c6.9,0,12.5,5.6,12.5,12.5v106.9c0,6.9-5.6,12.5-12.5,12.5H374.6c-6.9,0-12.5-5.6-12.5-12.5
	V181.5C362.1,174.6,367.7,169,374.6,169z"/>
<path class="st3" d="M443.5,264.5l21,21.6c0.9,0.9,2.2,1.4,3.5,1.4h0.1c1.3,0,2.6-0.5,3.5-1.4l21-21.6c1.9-1.7,2-4.7,0.2-6.5
	c-0.1-0.1-0.1-0.1-0.2-0.2c-2-1.9-5.1-1.9-7.1,0l-12.4,13v-33.5c-0.1-2.8-2.5-4.9-5.2-4.8c-2.6,0.1-4.7,2.2-4.8,4.8v33.5l-12.4-13
	c-2-1.9-5.1-1.9-7.1,0c-1.9,1.7-2,4.7-0.2,6.5C443.4,264.4,443.5,264.4,443.5,264.5L443.5,264.5z"/>
<path class="st2" d="M600.5,552H387.6c-6.9,0-12.5-5.6-12.5-12.5v-107c0-6.9,5.6-12.5,12.5-12.5h212.9c6.9,0,12.5,5.6,12.5,12.5
	v106.9C613.1,546.4,607.5,552,600.5,552z"/>
<path class="st1" d="M587.5,527H374.6c-6.9,0-12.5-5.6-12.5-12.5v-107c0-6.9,5.6-12.5,12.5-12.5h212.9c6.9,0,12.5,5.6,12.5,12.5
	v106.9C600.1,521.4,594.5,527,587.5,527z"/>
<path class="st3" d="M518.6,490.5c1.9-1.7,2-4.7,0.2-6.5c-0.1-0.1-0.1-0.1-0.2-0.2c-2-1.9-5.1-1.9-7.1,0l-12.4,13v-33.5
	c-0.1-2.8-2.5-4.9-5.2-4.8c-2.6,0.1-4.7,2.2-4.8,4.8v33.5l-12.4-13c-2-1.9-5.1-1.9-7.1,0c-1.9,1.7-2,4.7-0.2,6.5
	c0.1,0.1,0.1,0.1,0.2,0.2l21,21.6c0.9,0.9,2.2,1.4,3.5,1.4h0.1c1.3,0,2.6-0.5,3.5-1.4L518.6,490.5L518.6,490.5z"/>
<linearGradient id="SVGID_1_" gradientUnits="userSpaceOnUse" x1="253.0393" y1="920.329" x2="253.0393" y2="919.8804" gradientTransform="matrix(-1 0 0 1 499.4893 -244.7819)">
	<stop  offset="0" style="stop-color:#808080;stop-opacity:0.25"/>
	<stop  offset="0.5351" style="stop-color:#808080;stop-opacity:0.12"/>
	<stop  offset="1" style="stop-color:#808080;stop-opacity:0.1"/>
</linearGradient>
<path class="st4" d="M246.9,675.1L246.9,675.1c0,0-0.3,0.2-0.9,0.4C246.3,675.4,246.6,675.2,246.9,675.1z"/>
<path class="st5" d="M127.6,570.3c-7.5,21.6,1.3,56.6,5.3,72.2c4.1,15.6,5.3,34.4,5.3,34.4c15.9,2.5,27.5-0.6,27.5-0.6l-6.6-32.2
	c4.7-19.1,0-70,0-70s10.6-19.7,11.6-49.7c0.9-29.5,8.2-39.1,8.4-39.4l0,0c15,7.8,34.1,91.6,34.1,91.6c-1.6,20.3,0.3,51.6,6.6,68.5
	c3.8,10.7,5.4,22.1,4.7,33.4c2.2,1.8,5.2,2.2,8.5,1.6c8.9-1.4,19.6-9.1,19.6-9.1s-3.4-91.3-5.9-94.7s0-23.1,0-23.1l-4.1-31.9
	c0,0,0.6-54.1-5.3-63.5c-5.1-8.1-6.3-22.3-6.5-26.1c0-0.6,0-0.9,0-0.9l-9-10.8c0,0-87.5-6.6-94.1,0c-1.6,1.6-2.6,5.3-3.2,9.9
	c-1.8,14.2,0.3,37.3,0.3,37.3s2.6,17.2,6.4,34.7c2.3,10.5,2.3,21.4,0,31.9C132.3,546,131.1,558.4,127.6,570.3z"/>
<path class="st6" d="M133.1,707.4c3.9,5.2,26.9,3,30.8,1.4c2.4-1,2.2-5.5,1.6-10.1c-0.4-2.9-1-5.9-1.3-8.1c-0.6-5.6,1.9-17,1.9-17
	s-5.2,5.5-6.4,0c-0.5-2.4-2.5-3.6-4.5-4.2c-2.7-0.8-5.6-0.6-8.1,0.5c-4.1,1.8-10.8,5.5-9.6,10.6c1.7,7.2-4.4,17.4-4.4,17.4
	c-0.5,0.6-0.9,1.3-1.1,2C130.9,702.2,131.3,705.2,133.1,707.4z"/>
<path class="st7" d="M133.1,707.4c3.9,5.2,26.9,3,30.8,1.4c2.4-1,2.2-5.5,1.6-10.1c-2.5,1.2-6.7,2.1-13.7,1.5
	c-1.6-0.2-3.3-0.2-4.9-0.2c-5,0.2-10,0.1-14.9-0.3C130.9,702.2,131.3,705.2,133.1,707.4z"/>
<path class="st7" d="M213.3,576.6c-1.6,20.3,0.3,51.6,6.6,68.5c3.8,10.7,5.4,22.1,4.7,33.4c2.2,1.8,5.2,2.2,8.5,1.6
	c-1.9-13.2-9.9-70-15.1-114.9c-5.9-51.1-33.3-86.3-33.3-86.3l-5.5,6C194.2,492.8,213.3,576.6,213.3,576.6z"/>
<path class="st8" d="M142.5,248l3.8,18.8l18.7,31.4l23.1-9.8c0,0,31.3-32.8,11.6-37.5c-2.4-0.5-4.6-1.5-6.5-2.9
	c-3.9-2.9-5.1-7.2-5.1-11.3c0.2-4.7,1.2-9.2,3.2-13.4L151,210.6c1.7,5.3,2.6,10.8,2.9,16.3c0.3,11-3.8,16.4-7.1,19
	C145.5,246.8,144,247.6,142.5,248z"/>
<path class="st7" d="M150.9,210.5c1.7,5.3,2.6,10.8,2.9,16.3c0.7,0.9,1.5,1.7,2.3,2.5c8.5,8.1,20.7,10.9,31.9,7.3
	c0.2-4.7,1.2-9.2,3.2-13.4L150.9,210.5z"/>
<path class="st8" d="M146.3,205.3c0,17.6,14.3,31.9,31.9,31.9s31.9-14.3,31.9-31.9s-14.3-31.9-31.9-31.9
	c-17.5-0.1-31.8,14.1-31.9,31.6C146.3,205.2,146.3,205.3,146.3,205.3z"/>
<path class="st7" d="M142.5,248l3.8,18.8l18.7,31.4l23.1-9.8c0,0,31.3-32.8,11.6-37.5c-2.4-0.5-4.6-1.5-6.5-2.9
	c3.6,9.8-11.1,30.1-11.1,30.1c-1.7,2.5-5.6,0.9-5.6,0.9c-9.5-1.4-26.9-28.6-29.7-33.2C145.5,246.8,144,247.6,142.5,248z"/>
<path class="st7" d="M124.4,429.8c5.5,1.3,36.3,8.1,47.9,6.4c12.8-1.9,37.7-3.1,37.7-3.1s15.9,0.9,20.7-1.4c0-0.6,0-0.9,0-0.9
	l-9-10.8c0,0-87.5-6.6-94.1,0C126,421.6,125,425.2,124.4,429.8z"/>
<path class="st9" d="M182,279c0,0,16.5-22.9,10.3-31.7l27.9,11.4c0,0,16.8-2,22.8,23c1,4.2,1.3,8.4,1,12.7c-0.2,3.8,0.3,10.4,4.6,19
	c6.9,13.8,5.3,45.3-8.8,48.5s-19.1,1.6-19.1,1.6s1.9,57.2,10,63.8s-20.7,5-20.7,5s-24.9,1.3-37.7,3.1s-48.8-6.6-48.8-6.6
	s5.3-24.1,7.2-39.4s6.3-47.9,6.3-47.9l-31.9-43.2c0,0-5.6-26.1,14.1-37.7s27.1-14.4,27.1-14.4s19.8,32.2,30.1,33.8
	C176.4,279.9,180.3,281.5,182,279z"/>
<path class="st7" d="M218.6,288c0,0,0.3,10.3-1.6,14.4s-8.8,26.6-8.8,26.6h15.6c0,0-8.4-9.1-7.8-13.4S218.6,288,218.6,288z"/>
<path class="st8" d="M172.3,365.9c0,0,34.5-8.4,37.7-15.6s12.1-23.3,12.1-23.3l-3.6-4.9l-16.8,13.2c0,0-20,15.9-29.4,17.5
	S172.3,365.9,172.3,365.9z"/>
<path class="st10" d="M172.3,365.9c0,0,34.5-8.4,37.7-15.6s12.1-23.3,12.1-23.3l-3.6-4.9l-16.8,13.2c0,0-20,15.9-29.4,17.5
	S172.3,365.9,172.3,365.9z"/>
<path class="st8" d="M142.5,325.2v18.7h3c14.9,0,29.5,3.8,42.5,11l5.6,3.1l1.5,0.8l9.7-21.8l-9.1-8.1c0,0-0.2,0-0.5,0
	c-2.2,0.2-11.8,1-15.9-0.4c-3.9-1.3-8.7-5.5-20-2.6c-5.6,1.4-10.4,7.7-15.8,5.7L142.5,325.2z"/>
<path class="st7" d="M112.3,291.1l-6.3,7v17c0,0,5.3,53.8,22.2,59.7c16.9,5.9,47-3.4,47-3.4s7.8-20.6,4.1-21.9s-32.2-8.8-32.2-8.8
	s0.4-31.5-5.8-40.9c0,0,4.1-29.4-10-30S112.3,291.1,112.3,291.1z"/>
<path class="st9" d="M111.4,291.1l-6.3,7v17c0,0,5.3,53.8,22.2,59.7c16.9,5.9,47-3.4,47-3.4s7.8-20.6,4.1-21.9s-32.2-8.8-32.2-8.8
	s0.4-31.5-5.8-40.9c0,0,4.1-29.4-10-30S111.4,291.1,111.4,291.1z"/>
<path class="st7" d="M155.1,218.9c-0.3-2.1,0-4.1,0.7-6.1c0.9-1.9,2.9-3.3,5-2.9c2.7,0.6,3.8,4.1,6.5,4.9c2.2,0.7,4.6-0.9,5.7-2.9
	c1.1-2.1,1.1-4.5,1.1-6.8c0-2.6,0-5.2,0-7.8c0-2.8,0.1-5.9,1.8-8.1c2.2-2.8,7.3-4,10.7-3.9c2.3,0,4.5,0.9,6.1,2.5
	c1.8,1.6,3.9,2.7,6.4,2.3c2.1-0.3,3.9-1.8,4.5-3.9v-0.1c-10.6-14-30.6-16.8-44.7-6.1c-14,10.6-16.8,30.6-6.1,44.7
	c1,1.4,2.2,2.6,3.4,3.8C155.6,225.2,155.3,222.1,155.1,218.9z"/>
<path class="st9" d="M199.1,189.1c2.1-0.3,3.9-1.8,4.5-3.9c0.3-1,0.2-2.1,0.5-3.1c0.7-2.5,3.4-3.7,5.1-5.6c3.5-3.7,3.3-9.9,0.8-14.4
	c-2-3.6-5.9-6.7-10-6c-2.5,0.4-4.7,2.2-7.3,2.4c-2.5,0.2-4.7-1.2-7-2.3c-5.4-2.5-11.5-3-17.3-1.5c-1.8,0.4-3.4,1.2-4.8,2.4
	c-0.9,1.1-1.8,2.3-2.5,3.6c-2.9,3.7-8.1,4.4-12.8,5.3s-9.9,2.7-11.4,7.1c-1,3,0,6.2,0.6,9.3c0.2,0.6,0.1,1.3-0.1,1.9
	c-0.7,1.2-2.5,0.7-3.9,1c-2.6,0.6-3.3,3.9-3.4,6.6c-0.1,3.1-0.2,6.2-0.3,9.2c-0.1,1.2,0,2.3,0.3,3.4c0.6,1.6,1.5,3.1,2.7,4.3
	l10.3,12.4c4.6,5.5,9.4,11.9,8.5,19c2.2,1,4.7-0.9,5.5-3.2s0.1-4.7-0.3-7c-0.8-4-1.4-8.1-1.6-12.2c-0.3-2.1,0-4.1,0.7-6.1
	c0.9-1.9,2.9-3.3,5-2.9c2.7,0.6,3.8,4.1,6.4,4.9c2.2,0.7,4.6-0.9,5.7-2.9s1.1-4.5,1.1-6.8v-7.8c0-2.8,0.1-5.9,1.8-8.1
	c2.2-2.8,7.3-4,10.7-3.9c2.3,0,4.5,0.9,6.1,2.5C194.5,188.4,196.6,189.5,199.1,189.1z"/>
<path class="st7" d="M191.9,287.2l-9.8,40.2C182.1,327.5,174.4,327.4,191.9,287.2z"/>
<path class="st7" d="M158.4,280.5c0,0,12.8,21,7.8,42.7l-2.4,0.2C163.9,323.4,168.1,313.3,158.4,280.5z"/>
<path class="st7" d="M150.3,399.3c0,0-15.7-5.2-16.9,6.9C133.4,406.2,136.4,397.9,150.3,399.3z"/>
<path class="st7" d="M195.8,329.9c0,0,3.1,21.9-2.5,30.6c0,0,11.4,4.7,27.5,3.8l1.9-34.4H195.8z"/>
<path class="st7" d="M193.7,358.1l1.5,0.8l9.7-21.8l-9.1-8.1h-0.5l0,0C195.5,330,198,348.8,193.7,358.1z"/>
<path class="st9" d="M195.8,329c0,0,3.1,21.9-2.5,30.6c0,0,11.4,4.7,27.5,3.8l10.9-34.4H195.8z"/>
<path class="st6" d="M220.8,702.1c0.4,3.2,2.9,5.8,6.1,6.2c8.5,1.3,28.9-2.5,34.1,0c6.6,3.1,32.5,0.9,33.8-2.2
	c0.4-1.3,0.2-2.6-0.5-3.8c-0.9-1.9-2.4-3.5-4.2-4.5c-0.6-0.3-1.2-0.6-1.9-0.8c-4.9-1.6-14.1-5.1-16.6-8.7c0,0-11.5-10.1-14.8-15.5
	c-1.3-2.2-3.5-3.6-6-3.7c-2.7-0.1-5.8,1.3-7,7.3c0,0-15,8.6-19.1,1.1c0,0-0.6,18.5-3.1,21.7l0,0C221,699.9,220.7,701,220.8,702.1z"
	/>
<path class="st7" d="M220.8,702.1c0.4,3.2,2.9,5.8,6.1,6.2c8.5,1.3,28.9-2.5,34.1,0c6.6,3.1,32.5,0.9,33.8-2.2
	c0.4-1.3,0.2-2.6-0.5-3.8c-0.9-1.9-2.4-3.5-4.2-4.5c-4.2,2.8-13.6,5.6-34.3,2.3c-19.7-3.1-29.5,0.9-34.2-1.1l0,0
	C221,699.9,220.7,701,220.8,702.1z"/>
<g class="st11">
	<path d="M137.5,182.9c0-0.1,0-0.1,0-0.1c-0.4-2.3-1.1-4.8-1-7.1c0.2,1.9,0.5,3.8,1,5.7C137.6,181.8,137.6,182.4,137.5,182.9z"/>
	<path d="M155.8,212.2c-0.5,1.1-0.8,2.3-0.8,3.6c-0.1-1.7,0.1-3.4,0.8-5c0.9-1.9,2.9-3.3,5-2.9c2.7,0.6,3.8,4.1,6.4,4.9
		c2.2,0.7,4.6-0.9,5.7-2.9s1.1-4.5,1.1-6.8c0-2.6,0-5.2,0-7.8c0-2.8,0.1-5.9,1.8-8.1c2.2-2.8,7.3-4,10.7-3.9c2.3,0,4.5,0.9,6.1,2.5
		c1.8,1.6,3.9,2.7,6.4,2.3c2.1-0.3,3.9-1.8,4.5-3.9c0.3-1,0.2-2.1,0.5-3.1c0.7-2.5,3.4-3.7,5.1-5.6c1.6-1.8,2.6-4.2,2.6-6.6
		c0.3,2.9-0.7,5.8-2.6,8c-1.8,1.9-4.4,3.1-5.1,5.6c-0.3,1-0.2,2.1-0.5,3.1c-0.6,2.1-2.4,3.6-4.5,3.9c-2.5,0.4-4.6-0.7-6.4-2.3
		c-1.7-1.6-3.8-2.4-6.1-2.5c-3.4-0.1-8.5,1.1-10.7,3.9c-1.8,2.2-1.8,5.3-1.8,8.1c0,2.6,0,5.2,0,7.8c0,2.3,0,4.7-1.1,6.8
		s-3.5,3.6-5.7,2.9c-2.6-0.8-3.8-4.3-6.4-4.9C158.7,208.8,156.7,210.3,155.8,212.2z"/>
	<path d="M130.1,203.5c0.6,1.6,1.5,3.1,2.7,4.3c3.4,4.1,6.9,8.3,10.3,12.4c4.3,5.2,8.9,11.3,8.6,17.9c-0.3-6.1-4.6-11.7-8.6-16.5
		c-3.4-4.1-6.9-8.3-10.3-12.4c-1.2-1.2-2.1-2.7-2.7-4.3c-0.3-1.1-0.3-2.3-0.3-3.4C129.8,202.2,129.9,202.9,130.1,203.5z"/>
	<path d="M157,236.1c0.2-0.5,0.3-1.1,0.3-1.7c0.1,1,0,2.1-0.3,3.1c-0.7,2.3-3.3,4.1-5.5,3.2c0.1-0.5,0.1-0.9,0.1-1.4
		C153.8,240.2,156.3,238.3,157,236.1z"/>
</g>
<path class="st7" d="M258.9,675.5c0,0-3.3,5.7-15.1,0.7"/>
<path class="st7" d="M160.8,675.9c0,0-10.2,12-23.1,3.9"/>
<path class="st7" d="M131.1,533.7c0,0,7.2,4.5,7.4,7.1s-3.7-1.9-3.7-1.9L131.1,533.7z"/>
<path class="st7" d="M128.2,568.3c2.5,2.1,5.6,3.3,8.9,3.5c5.4,0.2,4.9,7.3,1.4,5.2S128.2,568.3,128.2,568.3z"/>
<path class="st7" d="M126.9,572.8c0,0,3.5,17,6.3,13.7"/>
</svg>
