<svg width="300" height="99" viewBox="0 0 300 99" fill="none" xmlns="http://www.w3.org/2000/svg">
<g clip-path="url(#clip0_820_21)">
<path fill-rule="evenodd" clip-rule="evenodd" d="M77.5451 53.7486H54.7637V31.1272H77.5451V53.7486Z" fill="#FFD24F"/>
<path fill-rule="evenodd" clip-rule="evenodd" d="M77.5473 53.748H54.7659L44.0098 65.771H66.7912L77.5473 53.748Z" fill="#EE3224"/>
<path fill-rule="evenodd" clip-rule="evenodd" d="M44.0729 65.6894L54.7581 53.7544V31.1271L44.002 43.15C26.823 43.15 34.3086 43.0855 17.159 43.0855V39.9377C17.159 36.4674 15.5061 36.9598 13.617 38.8122L1.47356 50.9113C0.529771 51.8537 0 53.1288 0 54.4578C0 55.7869 0.529771 57.0619 1.47356 58.0043L13.6347 70.1035C15.5415 71.9969 17.1767 72.4483 17.1767 68.9311V65.8301C34.3558 65.8301 26.823 65.7715 44.0906 65.7715V65.6894H44.0729Z" fill="white"/>
<path fill-rule="evenodd" clip-rule="evenodd" d="M19.5391 17.793H42.3205V40.4144H19.5391V17.793Z" fill="#FFD24F"/>
<path fill-rule="evenodd" clip-rule="evenodd" d="M19.5391 17.7905H42.3205L53.0766 5.77344H30.2952L19.5391 17.7905Z" fill="#EE3224"/>
<path fill-rule="evenodd" clip-rule="evenodd" d="M53.0135 5.86255L42.3164 17.7917V40.4131L53.0725 28.396C70.2574 28.396 62.7719 28.4605 79.9214 28.4605V31.6084C79.9214 35.0787 81.5744 34.5863 83.4635 32.7339L95.6246 20.6406C96.5684 19.6982 97.0981 18.4232 97.0981 17.0941C97.0981 15.7651 96.5684 14.49 95.6246 13.5476L83.4398 1.44847C81.533 -0.444955 79.8978 -0.896328 79.8978 2.62087V5.716C62.7246 5.716 70.2574 5.77462 52.9839 5.77462V5.86255H53.0135Z" fill="white"/>
<path d="M103.182 46.339H119.841C119.814 49.0981 120.378 50.8782 121.535 51.6793C122.513 52.241 123.613 52.5589 124.741 52.6055C126.052 52.7032 130.184 52.7775 137.138 52.8283C144.405 52.8283 148.78 52.7579 150.232 52.6876C151.418 52.6749 152.593 52.4567 153.703 52.0427C154.973 51.5269 155.61 50.1259 155.61 47.8104C155.61 46.1456 155.156 45.0377 154.27 44.4749C153.385 43.9122 151.549 43.6073 148.798 43.5487C146.668 43.5487 142.176 43.3846 135.32 43.0563C128.295 42.7202 123.718 42.5248 121.589 42.4701C117.452 42.3294 114.278 41.9386 112.066 41.2977C110.054 40.7952 108.239 39.7072 106.854 38.1733C104.724 35.762 103.662 31.7368 103.666 26.0976C103.666 19.7783 104.88 15.3174 107.308 12.7146C109.158 10.6825 111.994 9.38893 115.815 8.83399C119.637 8.27906 127.425 7.99964 139.181 7.99573C147.477 7.99573 153.304 8.23021 156.661 8.69917C161.84 9.41433 165.396 10.8427 167.329 12.9843C169.261 15.1259 170.225 18.7447 170.221 23.8407C170.221 24.3155 170.221 25.1831 170.18 26.4727H153.526C153.539 25.3912 153.406 24.3128 153.131 23.2662C152.909 22.6688 152.477 22.1712 151.915 21.8652C151.165 21.4314 149.854 21.15 147.995 21.0269C146.135 20.9038 142.15 20.8452 136.087 20.8452C128.779 20.8452 124.33 21.0699 122.74 21.5193C121.146 21.9824 120.343 23.231 120.343 25.2769C120.343 27.3227 121.146 28.4599 122.74 28.8937C124.066 29.2572 130.143 29.603 140.97 29.9313C150.085 30.1971 156.185 30.5156 159.27 30.8868C162.356 31.2581 164.802 31.9635 166.608 33.003C168.601 34.1544 170.143 35.9416 170.983 38.0736C171.845 40.2308 172.274 43.3181 172.27 47.3356C172.27 52.6114 171.549 56.5565 170.127 59.1182C169.112 60.9586 167.543 62.4383 165.64 63.3505C163.72 64.2767 161.024 64.9079 157.552 65.244C153.825 65.5644 146.897 65.7285 136.766 65.7364C128.273 65.7364 122.004 65.5175 117.958 65.0798C113.912 64.6421 110.864 63.8605 108.814 62.735C106.842 61.6908 105.288 60.0095 104.41 57.9692C103.622 56.0152 103.217 53.0158 103.193 48.9711V46.339H103.182Z" fill="white"/>
<path d="M178.201 8.86536H237.861V22.0373H195.398V32.624H235.783V45.5145H195.398V64.8943H178.201V8.86536Z" fill="white"/>
<path d="M241.793 8.86536H259.852V50.6028H300.001V64.8943H241.793V8.86536Z" fill="white"/>
<path d="M0.0820312 74.9678H7.47315L13.8548 92.6593H15.2008L20.5847 74.9678H29.3395L34.7589 92.6593H36.1226L42.5397 74.9678H50.226L40.9693 98.5975H29.7764L24.9946 81.2636L20.2718 98.5975H9.04938L0.0820312 74.9678Z" fill="white"/>
<path d="M67.0262 74.6164C70.5726 74.5484 74.1201 74.6756 77.6524 74.9975C80.4309 75.3883 82.1351 76.6994 82.7648 78.9309C83.1938 80.4745 83.4082 83.089 83.4082 86.7742C83.4082 90.4594 83.1938 93.0798 82.7648 94.6351C82.1351 96.8861 80.4309 98.1973 77.6524 98.5685C74.1536 98.8886 70.6395 99.0158 67.1265 98.9496C63.5663 99.0171 60.0051 98.8899 56.459 98.5685C53.6804 98.1777 51.9763 96.8666 51.3466 94.6351C50.9156 93.0934 50.7031 90.4204 50.7031 86.6394C50.7031 83.0362 50.9176 80.4667 51.3466 78.9309C51.9763 76.6798 53.6804 75.3687 56.459 74.9975C59.9912 74.675 63.5388 74.5478 67.0852 74.6164H67.0262ZM67.0262 80.7598C63.1811 80.7598 60.8689 80.8575 60.0896 81.0529C59.6837 81.134 59.3064 81.3197 58.9955 81.5913C58.6847 81.863 58.4512 82.211 58.3186 82.6005C58.0391 83.4055 57.8994 85.0039 57.8994 87.3956C57.8678 88.4438 57.9429 89.4926 58.1238 90.5259C58.413 91.6983 59.3045 92.4193 60.7567 92.5893C62.8514 92.7653 64.9539 92.8338 67.0557 92.7945C69.972 92.7945 71.9123 92.7437 72.8765 92.6421C73.641 92.6054 74.3814 92.3644 75.0194 91.9445C75.4652 91.5849 75.7684 91.0803 75.8754 90.52C76.057 89.4987 76.1322 88.4615 76.0998 87.4249C76.1224 86.1759 76.0652 84.9267 75.9286 83.6849C75.866 83.0453 75.6494 82.4301 75.2969 81.8912C75.0609 81.6142 74.7707 81.3878 74.444 81.2256C74.1172 81.0633 73.7607 80.9687 73.396 80.9474C71.2732 80.78 69.1433 80.7194 67.0144 80.7657L67.0262 80.7598Z" fill="white"/>
<path d="M86.2441 98.5975V74.9678H103.771C107.884 74.9678 110.348 75.0108 111.163 75.0967C112.002 75.1792 112.81 75.4541 113.524 75.8998C114.397 76.4021 115.059 77.1988 115.389 78.145C115.793 79.6064 115.964 81.1214 115.897 82.6353C115.941 83.9056 115.834 85.1766 115.578 86.4221C115.395 87.1826 114.969 87.8635 114.362 88.3624C113.51 88.9668 112.512 89.3368 111.47 89.4352C112.993 89.5466 114.085 89.9862 114.746 90.7365C115.135 91.2033 115.388 91.7669 115.478 92.3662C115.612 93.7061 115.664 95.053 115.632 96.3992V98.5975H108.477V97.3078C108.501 96.3675 108.451 95.4268 108.329 94.4941C108.268 94.0206 108.079 93.5726 107.78 93.1986C107.479 92.9091 107.092 92.724 106.676 92.671C105.695 92.5722 104.71 92.535 103.724 92.5596H93.4995V98.5975H86.2441ZM93.4995 86.6859H103.701C105.472 86.6507 106.54 86.6214 106.883 86.5921C107.193 86.5733 107.495 86.4808 107.762 86.3225C108.078 86.1192 108.312 85.8121 108.423 85.4549C108.571 84.8807 108.635 84.2884 108.612 83.6963C108.643 83.1019 108.569 82.5068 108.394 81.9377C108.33 81.7568 108.23 81.5905 108.1 81.4485C107.97 81.3066 107.813 81.1919 107.638 81.1111C107.349 80.9875 107.038 80.918 106.723 80.906C106.375 80.906 105.354 80.8649 103.683 80.8532H93.4995V86.6683V86.6859Z" fill="white"/>
<path d="M118.383 74.9678H125.998V92.5713H142.929V98.5975H118.383V74.9678Z" fill="white"/>
<path d="M144.602 98.5975V74.9678H161.775C164.817 74.9678 166.808 74.9912 167.749 75.0381C168.741 75.0912 169.728 75.2186 170.701 75.4191C171.78 75.5817 172.79 76.0455 173.614 76.7564C174.437 77.4674 175.04 78.3962 175.353 79.4346C175.628 80.3041 175.81 81.2001 175.896 82.1077C175.984 83.0632 176.032 84.4994 176.032 86.428C176.032 88.5441 175.978 90.1386 175.866 91.2289C175.784 92.2349 175.586 93.2282 175.276 94.1892C174.973 95.167 174.405 96.0429 173.633 96.7204C172.861 97.3978 171.916 97.8506 170.901 98.0288C169.811 98.2676 168.704 98.4224 167.59 98.492C166.409 98.5701 164.486 98.6072 161.822 98.6033L144.602 98.5975ZM151.739 92.5713H161.834C163.214 92.5986 164.594 92.5379 165.966 92.3896C166.632 92.3492 167.275 92.1304 167.826 91.7565C168.274 91.3336 168.569 90.7749 168.664 90.1679C168.854 89.0824 168.935 87.9808 168.906 86.8793C168.931 85.7735 168.862 84.6675 168.699 83.5732C168.61 82.9544 168.357 82.37 167.967 81.8791C167.505 81.4198 166.899 81.1304 166.25 81.0584C164.763 80.9047 163.268 80.8499 161.775 80.8942H151.739V92.6182V92.5713Z" fill="white"/>
<path d="M176.383 74.9678H183.774L190.156 92.6593H191.502L196.886 74.9678H205.64L211.06 92.6593H212.423L218.84 74.9678H226.527L217.27 98.5975H206.071L201.295 81.2636L196.573 98.5975H185.344L176.383 74.9678Z" fill="white"/>
<path d="M227.746 74.9678H235.361V98.5975H227.746V74.9678Z" fill="white"/>
<path d="M238.693 98.5975V74.9678H255.867C258.909 74.9678 260.9 74.9912 261.841 75.0381C262.833 75.0912 263.82 75.2186 264.793 75.4191C265.872 75.5817 266.882 76.0455 267.705 76.7564C268.529 77.4674 269.132 78.3962 269.444 79.4346C269.72 80.3041 269.902 81.2001 269.988 82.1077C270.076 83.0632 270.123 84.4994 270.123 86.428C270.123 88.5441 270.07 90.1386 269.958 91.2289C269.876 92.2349 269.678 93.2282 269.368 94.1892C269.065 95.167 268.497 96.0429 267.725 96.7204C266.953 97.3978 266.008 97.8506 264.993 98.0288C263.903 98.2676 262.796 98.4224 261.681 98.492C260.501 98.5701 258.578 98.6072 255.914 98.6033L238.693 98.5975ZM245.842 92.5713H255.937C257.317 92.5986 258.698 92.5379 260.07 92.3896C260.736 92.3492 261.378 92.1304 261.929 91.7565C262.378 91.3336 262.673 90.7749 262.768 90.1679C262.958 89.0824 263.039 87.9808 263.01 86.8793C263.035 85.7735 262.965 84.6675 262.803 83.5732C262.713 82.9544 262.461 82.37 262.071 81.8791C261.609 81.4198 261.003 81.1304 260.353 81.0584C258.875 80.8999 257.388 80.8392 255.902 80.8767H245.866V92.6006L245.842 92.5713Z" fill="white"/>
<path d="M272.982 74.9678H299.347V80.5191H280.132V83.9366H298.367V89.1304H280.132V92.9172H299.483V98.5975H272.982V74.9678Z" fill="white"/>
</g>
<defs>
<clipPath id="clip0_820_21">
<rect width="300" height="98.9446" fill="white"/>
</clipPath>
</defs>
</svg>
